# xmcd
#
# Track frame offsets: 
#        150
#        12433
#        24927
#        38489
#        50847
#        63566
#        77612
#        90526
#        101965
#        114940
#        127568
#        141375
#        154476
#        167294
#        179603
#        193719
#        207142
#        220171
#        233695
#        247067
#        260043
#        274175
#        286803
#        301351
#        315535
#        330672
#
# Disc length: 4591 seconds
#
# Revision: 0
# Processed by: cddbd v1.5.2PL0 Copyright (c) Steve Scherf et al.
# Submitted via: ExactAudioCopy v0.99pb5
#
DISCID=6f11ed1a
DTITLE=Barbara Demick - Nothing to Envy [3 of 10]
DYEAR=2010
DGENRE=Audiobook
TTITLE0=03-01
TTITLE1=03-02
TTITLE2=03-03
TTITLE3=03-04
TTITLE4=03-05
TTITLE5=03-06
TTITLE6=03-07
TTITLE7=03-08
TTITLE8=03-09
TTITLE9=03-10
TTITLE10=03-11
TTITLE11=03-12
TTITLE12=03-13
TTITLE13=03-14
TTITLE14=03-15
TTITLE15=03-16
TTITLE16=03-17
TTITLE17=03-18
TTITLE18=03-19
TTITLE19=03-20
TTITLE20=03-21
TTITLE21=03-22
TTITLE22=03-23
TTITLE23=03-24
TTITLE24=03-25
TTITLE25=03-26
EXTD=
EXTT0=
EXTT1=
EXTT2=
EXTT3=
EXTT4=
EXTT5=
EXTT6=
EXTT7=
EXTT8=
EXTT9=
EXTT10=
EXTT11=
EXTT12=
EXTT13=
EXTT14=
EXTT15=
EXTT16=
EXTT17=
EXTT18=
EXTT19=
EXTT20=
EXTT21=
EXTT22=
EXTT23=
EXTT24=
EXTT25=
PLAYORDER=
